<?xml version="1.0" standalone="no"?>
<!DOCTYPE svg PUBLIC "-//W3C//DTD SVG 20010904//EN"
 "http://www.w3.org/TR/2001/REC-SVG-20010904/DTD/svg10.dtd">
<svg version="1.0" xmlns="http://www.w3.org/2000/svg"
 width="512.000000pt" height="512.000000pt" viewBox="0 0 512.000000 512.000000"
 preserveAspectRatio="xMidYMid meet">
<metadata>
Created by potrace 1.14, written by Peter Selinger 2001-2017
</metadata>
<g transform="translate(0.000000,512.000000) scale(0.100000,-0.100000)"
fill="#000000" stroke="none">
<path d="M2379 5116 c-2 -2 -40 -6 -83 -10 -44 -4 -82 -9 -85 -11 -4 -2 -34
-7 -66 -10 -117 -14 -472 -111 -499 -136 -6 -5 -16 -9 -23 -9 -31 0 -285 -127
-413 -206 -519 -320 -910 -826 -1094 -1414 -85 -271 -114 -486 -110 -795 1
-121 5 -236 9 -255 3 -19 13 -78 21 -130 27 -166 79 -357 141 -515 38 -97 149
-326 180 -372 11 -15 45 -66 75 -113 402 -621 1102 -1043 1868 -1127 88 -10
428 -10 515 0 591 64 1133 319 1548 730 53 52 87 90 173 189 137 159 302 437
396 668 75 182 140 425 163 603 29 224 27 535 -4 742 -63 416 -236 826 -490
1160 -25 33 -50 65 -56 71 -5 6 -30 35 -55 65 -73 87 -216 225 -320 308 -195
157 -405 281 -665 392 -117 50 -373 119 -525 143 -52 8 -111 18 -130 21 -37 7
-465 16 -471 11z"/>
</g>
</svg>
